<?xml version="1.0" encoding="utf-8"?>
<!-- Generator: Adobe Illustrator 26.1.0, SVG Export Plug-In . SVG Version: 6.00 Build 0)  -->
<svg version="1.1" id="Layer_1" xmlns="http://www.w3.org/2000/svg" xmlns:xlink="http://www.w3.org/1999/xlink" x="0px" y="0px"
	 viewBox="0 0 612 792" style="enable-background:new 0 0 612 792;" xml:space="preserve">
<style type="text/css">
	.st0{fill:#4D624B;}
	.st1{fill:#3D4F3D;}
	.st2{fill:#829181;}
	.st3{fill:#708170;}
</style>
<g id="Group_47" transform="translate(-3480.744 -6160.395)">
	<g id="Group_42" transform="translate(3531.64 6734.584)">
		<g id="Group_41" transform="translate(0 46.252)">
			<path id="Path_6" class="st0" d="M-22.86-161.43c0,0,36.35,56.47,81.26,60.55c44.91,4.08,58.91-0.3,58.91-0.3
				s5.22-13.43-16.31-44.27s-40.9-59.01-88.57-49.78S-22.86-161.43-22.86-161.43z"/>
			<path id="Path_7" class="st1" d="M40.91-113.61c0,0,57.44,34.82,99.6,18.78s52.82-26.1,52.82-26.1s-1.2-14.37-34.07-32.64
				s-62.65-35.11-101.45-5.9S40.91-113.61,40.91-113.61z"/>
			<path id="Path_10" class="st2" d="M146.52-29.87c0,0,59.96-30.27,68.7-74.53c8.74-44.25,5.85-58.63,5.85-58.63
				s-12.82-6.6-45.74,11.61s-62.97,34.54-58.76,82.92C120.77-20.12,146.52-29.87,146.52-29.87z"/>
			<path id="Path_9" class="st0" d="M165.08-11.34c0,0,9.6-66.47-21.64-99.01s-44.67-38.41-44.67-38.41s-12.76,6.71-16.73,44.12
				c-3.97,37.4-7.83,71.38,34.21,95.68S165.08-11.34,165.08-11.34z"/>
			<path id="Path_8" class="st3" d="M-22.48-98.45c0,0,35.38,57.08,80.22,61.92c44.83,4.84,58.9,0.71,58.9,0.71
				s5.45-13.34-15.55-44.54s-39.89-59.7-87.71-51.28C-34.44-123.24-22.48-98.45-22.48-98.45z"/>
			<path id="Path_11" class="st1" d="M140.78-24.35c0,0,57.44,34.82,99.6,18.78s52.82-26.1,52.82-26.1s-1.2-14.37-34.07-32.64
				s-62.65-35.11-101.45-5.9S140.78-24.35,140.78-24.35z"/>
			<path id="Path_12" class="st3" d="M170.97-118.05c0,0,35.38,57.08,80.22,61.92c44.83,4.84,58.9,0.71,58.9,0.71
				s5.45-13.34-15.55-44.54c-21-31.2-39.89-59.7-87.71-51.28S170.97-118.05,170.97-118.05z"/>
		</g>
		<path id="Path_13" class="st0" d="M133.08-87.81c0,0,62.17,25.38,101.29,2.94s48.07-34.05,48.07-34.05s-3.43-14-38.76-26.9
			c-35.33-12.9-67.36-24.85-101.1,10.06S133.08-87.81,133.08-87.81z"/>
	</g>
	<g id="Group_43" transform="translate(4494.86 6799.913)">
		<g id="Group_41-2" transform="translate(0 46.252)">
			<path id="Path_6-2" class="st0" d="M-418.33-210.71c0,0-36.35,56.47-81.26,60.55s-58.91-0.3-58.91-0.3s-5.22-13.43,16.31-44.27
				c21.53-30.84,40.9-59.01,88.57-49.78C-405.95-235.29-418.33-210.71-418.33-210.71z"/>
			<path id="Path_7-2" class="st1" d="M-482.05-162.91c0,0-57.44,34.82-99.6,18.78c-42.16-16.03-52.82-26.1-52.82-26.1
				s1.2-14.37,34.07-32.64s62.65-35.1,101.45-5.9S-482.05-162.91-482.05-162.91z"/>
			<path id="Path_10-2" class="st2" d="M-587.65-79.13c0,0-59.94-30.27-68.67-74.51s-5.84-58.62-5.84-58.62s12.82-6.59,45.73,11.61
				c32.91,18.2,62.95,34.54,58.73,82.91C-561.92-69.38-587.65-79.13-587.65-79.13z"/>
			<path id="Path_9-2" class="st0" d="M-606.19-60.58c0,0-9.6-66.47,21.64-99.01s44.67-38.41,44.67-38.41s12.76,6.72,16.73,44.12
				c3.97,37.4,7.83,71.38-34.21,95.68S-606.19-60.58-606.19-60.58z"/>
			<path id="Path_8-2" class="st3" d="M-418.66-147.71c0,0-35.38,57.08-80.22,61.92c-44.83,4.84-58.9,0.71-58.9,0.71
				s-5.45-13.34,15.55-44.54c21-31.2,39.89-59.7,87.71-51.28S-418.66-147.71-418.66-147.71z"/>
			<path id="Path_11-2" class="st1" d="M-581.92-73.65c0,0-57.44,34.82-99.6,18.78c-42.16-16.03-52.82-26.1-52.82-26.1
				s1.2-14.37,34.07-32.64s62.65-35.1,101.45-5.9S-581.92-73.65-581.92-73.65z"/>
			<path id="Path_12-2" class="st3" d="M-612.11-167.31c0,0-35.38,57.08-80.22,61.92s-58.9,0.71-58.9,0.71s-5.45-13.34,15.55-44.54
				s39.89-59.7,87.71-51.28S-612.11-167.31-612.11-167.31z"/>
		</g>
		<path id="Path_13-2" class="st0" d="M-574.18-137.09c0,0-62.2,25.39-101.33,2.94c-39.13-22.45-48.09-34.07-48.09-34.07
			s3.43-14,38.78-26.91c35.34-12.9,67.39-24.86,101.15,10.07C-549.92-150.12-574.18-137.09-574.18-137.09z"/>
	</g>
	<g id="Group_44" transform="translate(3480.744 6160.396)">
		<g id="Group_41-3" transform="translate(0 46.252)">
			<path id="Path_6-3" class="st0" d="M346.32,271.48c0,0-36.35,56.47-81.26,60.55c-44.91,4.08-58.91-0.3-58.91-0.3
				s-5.22-13.43,16.31-44.27s40.9-59.01,88.57-49.78C358.69,246.9,346.32,271.48,346.32,271.48z"/>
			<path id="Path_7-3" class="st1" d="M282.6,319.28c0,0-57.44,34.82-99.6,18.78c-42.16-16.03-52.82-26.1-52.82-26.1
				s1.2-14.37,34.07-32.64s62.65-35.1,101.45-5.9S282.6,319.28,282.6,319.28z"/>
			<path id="Path_10-3" class="st2" d="M176.99,403.07c0,0-59.94-30.27-68.67-74.51s-5.84-58.62-5.84-58.62s12.82-6.59,45.73,11.61
				c32.91,18.2,62.95,34.54,58.73,82.91C202.73,412.82,176.99,403.07,176.99,403.07z"/>
			<path id="Path_9-3" class="st0" d="M158.45,421.61c0,0-9.6-66.47,21.64-99.01s44.67-38.41,44.67-38.41s12.76,6.71,16.73,44.12
				s7.83,71.38-34.21,95.68S158.45,421.61,158.45,421.61z"/>
			<path id="Path_8-3" class="st3" d="M345.99,334.49c0,0-35.38,57.08-80.22,61.92c-44.83,4.84-58.9,0.71-58.9,0.71
				s-5.45-13.34,15.55-44.54s39.89-59.7,87.71-51.28S345.99,334.49,345.99,334.49z"/>
			<path id="Path_11-3" class="st1" d="M182.72,408.55c0,0-57.44,34.82-99.6,18.78c-42.16-16.03-52.82-26.1-52.82-26.1
				s1.2-14.37,34.07-32.64s62.65-35.1,101.45-5.9C204.63,391.88,182.72,408.55,182.72,408.55z"/>
			<path id="Path_12-3" class="st3" d="M152.54,314.89c0,0-35.38,57.08-80.22,61.92c-44.83,4.84-58.9,0.71-58.9,0.71
				s-5.45-13.34,15.55-44.54s39.89-59.7,87.71-51.28S152.54,314.89,152.54,314.89z"/>
		</g>
		<path id="Path_13-3" class="st0" d="M190.47,345.11c0,0-62.2,25.39-101.33,2.94s-48.09-34.07-48.09-34.07s3.43-14,38.78-26.91
			s67.39-24.86,101.15,10.07S190.47,345.11,190.47,345.11z"/>
	</g>
	<g id="Group_45" transform="translate(4513.091 6225.725)">
		<g id="Group_41-4" transform="translate(0 46.252)">
			<path id="Path_6-4" class="st0" d="M-762.87,222.25c0,0,36.35,56.47,81.26,60.55s58.91-0.3,58.91-0.3s5.22-13.43-16.31-44.27
				c-21.53-30.84-40.9-59.01-88.57-49.78S-762.87,222.25-762.87,222.25z"/>
			<path id="Path_7-4" class="st1" d="M-699.11,270.07c0,0,57.44,34.82,99.6,18.78s52.82-26.1,52.82-26.1s-1.2-14.37-34.07-32.64
				c-32.88-18.28-62.65-35.11-101.45-5.9S-699.11,270.07-699.11,270.07z"/>
			<path id="Path_10-4" class="st2" d="M-593.5,353.81c0,0,59.94-30.27,68.67-74.51c8.73-44.24,5.84-58.62,5.84-58.62
				s-12.82-6.59-45.73,11.61s-62.95,34.54-58.73,82.91S-593.5,353.81-593.5,353.81z"/>
			<path id="Path_9-4" class="st0" d="M-574.94,372.34c0,0,9.6-66.47-21.64-99.01s-44.67-38.41-44.67-38.41s-12.76,6.71-16.73,44.12
				c-3.97,37.4-7.83,71.38,34.21,95.68C-581.72,399.02-574.94,372.34-574.94,372.34z"/>
			<path id="Path_8-4" class="st3" d="M-762.5,285.23c0,0,35.38,57.08,80.22,61.92c44.83,4.84,58.9,0.71,58.9,0.71
				s5.45-13.34-15.55-44.54s-39.89-59.7-87.71-51.28C-774.46,260.44-762.5,285.23-762.5,285.23z"/>
			<path id="Path_11-4" class="st1" d="M-599.23,359.33c0,0,57.44,34.82,99.6,18.78s52.82-26.1,52.82-26.1s-1.2-14.37-34.07-32.64
				s-62.65-35.11-101.45-5.9C-621.14,342.66-599.23,359.33-599.23,359.33z"/>
			<path id="Path_12-4" class="st3" d="M-569.05,265.63c0,0,35.38,57.08,80.22,61.92c44.83,4.84,58.9,0.71,58.9,0.71
				s5.45-13.34-15.55-44.54c-21-31.2-39.89-59.7-87.71-51.28C-581.01,240.84-569.05,265.63-569.05,265.63z"/>
		</g>
		<path id="Path_13-4" class="st0" d="M-606.93,295.87c0,0,62.2,25.39,101.33,2.94s48.09-34.07,48.09-34.07s-3.43-14-38.78-26.91
			c-35.35-12.9-67.39-24.86-101.15,10.07C-631.18,282.84-606.93,295.87-606.93,295.87z"/>
	</g>
</g>
</svg>
