<?xml version="1.0" encoding="utf-8"?>
<!-- Generator: Adobe Illustrator 26.2.1, SVG Export Plug-In . SVG Version: 6.00 Build 0)  -->
<svg version="1.1" id="Layer_1" xmlns="http://www.w3.org/2000/svg" xmlns:xlink="http://www.w3.org/1999/xlink" x="0px" y="0px"
	 viewBox="0 0 612 792" style="enable-background:new 0 0 612 792;" xml:space="preserve">
<style type="text/css">
	.st0{fill:#F2DFC0;}
	.st1{fill:#EFD5AB;}
</style>
<path id="Path_5" class="st0" d="M69.73,461.61c0,0,95.86,76.71,139.57,89.87c43.71,13.16,230.6,78.33,250.74,68.3
	c1.27-34.37,0-73.81,0-73.81L199.99,408.22L69.73,353.69V461.61z"/>
<path id="Path_3" class="st1" d="M71.24,354.97c0,0,61.01,64.78,101.71,82.93s211.52,93.65,237.88,99.65s49.77,8.96,49.77,8.96
	v-85.09L214.08,344.07l-81.48-73.81L85.06,236.1H71.4L71.24,354.97z"/>
<path id="Path_2" class="st0" d="M79.27,236.18c0,0,64.06,86.3,83.3,101.12c19.24,14.83,149.94,75.45,185.78,86.28
	c35.84,10.83,110.36,38.02,110.36,38.02v-86.63l-191.18-60.75l-105.66-78L79.27,236.18z"/>
<path id="Path_1" class="st1" d="M154.66,236.18c0,0,86.31,70.09,118.61,83.97s186.17,55.61,186.17,55.61V235.92L154.66,236.18z"/>
<line class="st0" x1="473.12" y1="236.08" x2="355.17" y2="198.52"/>
<line class="st0" x1="275.03" y1="236.08" x2="473.12" y2="236.08"/>
<path class="st0" d="M248.24,236.26c0,0,47.05,38.09,61.78,45.45c14.72,7.36,147.23,48.22,149.47,48.22
	c0.32-41.61-0.04-94.01-0.04-94.01L248.24,236.26z"/>
</svg>
